<svg width="20" height="20" viewBox="0 0 20 20" fill="none" xmlns="http://www.w3.org/2000/svg">
<path d="M15 8.33332C15 7.00724 14.4732 5.73547 13.5355 4.79779C12.5979 3.86011 11.3261 3.33332 10 3.33332C8.67392 3.33332 7.40215 3.86011 6.46447 4.79779C5.52679 5.73547 5.00001 7.00724 5.00001 8.33332V15H15V8.33332ZM16.6667 15.5558L17 16C17.0464 16.0619 17.0747 16.1355 17.0817 16.2126C17.0886 16.2896 17.074 16.3671 17.0394 16.4363C17.0047 16.5055 16.9515 16.5637 16.8857 16.6044C16.8199 16.6451 16.7441 16.6667 16.6667 16.6667H3.33334C3.25596 16.6667 3.18011 16.6451 3.11428 16.6044C3.04846 16.5637 2.99527 16.5055 2.96066 16.4363C2.92606 16.3671 2.91141 16.2896 2.91836 16.2126C2.9253 16.1355 2.95358 16.0619 3.00001 16L3.33334 15.5558V8.33332C3.33334 6.56521 4.03572 4.86952 5.28596 3.61928C6.5362 2.36904 8.2319 1.66666 10 1.66666C11.7681 1.66666 13.4638 2.36904 14.7141 3.61928C15.9643 4.86952 16.6667 6.56521 16.6667 8.33332V15.5558ZM7.91667 17.5H12.0833C12.0833 18.0525 11.8638 18.5824 11.4731 18.9731C11.0824 19.3638 10.5525 19.5833 10 19.5833C9.44747 19.5833 8.91757 19.3638 8.52687 18.9731C8.13617 18.5824 7.91667 18.0525 7.91667 17.5Z" fill="#545454"/>
</svg>
