<svg width="22" height="21" viewBox="0 0 22 21" fill="none" xmlns="http://www.w3.org/2000/svg">
<path d="M11.0002 19.25C5.93741 19.25 1.8335 15.3326 1.8335 10.5C1.8335 5.66738 5.93741 1.75 11.0002 1.75C16.0629 1.75 20.1668 5.66738 20.1668 10.5C20.1668 15.3326 16.0629 19.25 11.0002 19.25ZM11.0002 17.5C12.9451 17.5 14.8103 16.7625 16.1856 15.4497C17.5609 14.137 18.3335 12.3565 18.3335 10.5C18.3335 8.64348 17.5609 6.86301 16.1856 5.55025C14.8103 4.2375 12.9451 3.5 11.0002 3.5C9.05524 3.5 7.18998 4.2375 5.81471 5.55025C4.43945 6.86301 3.66683 8.64348 3.66683 10.5C3.66683 12.3565 4.43945 14.137 5.81471 15.4497C7.18998 16.7625 9.05524 17.5 11.0002 17.5ZM11.9168 10.5H15.5835V12.25H10.0835V6.125H11.9168V10.5Z" fill="white"/>
</svg>
