<svg width="11" height="11" viewBox="0 0 11 11" fill="none" xmlns="http://www.w3.org/2000/svg">
<g clip-path="url(#clip0_864_1501)">
<path d="M7.7915 2.75H10.0832V3.66666H9.1665V9.625C9.1665 9.74656 9.11822 9.86313 9.03226 9.94909C8.94631 10.035 8.82973 10.0833 8.70817 10.0833H2.2915C2.16995 10.0833 2.05337 10.035 1.96741 9.94909C1.88146 9.86313 1.83317 9.74656 1.83317 9.625V3.66666H0.916504V2.75H3.20817V1.375C3.20817 1.25344 3.25646 1.13686 3.34241 1.05091C3.42837 0.964953 3.54495 0.916664 3.6665 0.916664H7.33317C7.45473 0.916664 7.57131 0.964953 7.65726 1.05091C7.74322 1.13686 7.7915 1.25344 7.7915 1.375V2.75ZM8.24984 3.66666H2.74984V9.16666H8.24984V3.66666ZM4.12484 1.83333V2.75H6.87484V1.83333H4.12484Z" fill="white"/>
</g>
<defs>
<clipPath id="clip0_864_1501">
<rect width="11" height="11" fill="white"/>
</clipPath>
</defs>
</svg>
