<svg width="20" height="20" viewBox="0 0 20 20" fill="none" xmlns="http://www.w3.org/2000/svg">
<path d="M10.0008 3.77417C11.9583 2.01667 14.9833 2.075 16.8691 3.96417C18.7541 5.85417 18.8191 8.86417 17.0658 10.8275L9.99913 17.9042L2.93413 10.8275C1.1808 8.86417 1.24663 5.84917 3.1308 3.96417C5.0183 2.0775 8.03746 2.01417 10.0008 3.77417ZM15.6891 5.14167C14.4391 3.89 12.4225 3.83917 11.1141 5.01417L10.0016 6.0125L8.8883 5.015C7.5758 3.83833 5.5633 3.89 4.30996 5.14333C3.0683 6.385 3.0058 8.3725 4.14996 9.68583L9.99996 15.545L15.85 9.68666C16.995 8.3725 16.9325 6.3875 15.6891 5.14167Z" fill="#373737"/>
</svg>
