<svg width="20" height="20" viewBox="0 0 20 20" fill="none" xmlns="http://www.w3.org/2000/svg">
<path d="M10 15.4042L13.5358 11.8692C14.235 11.1699 14.7111 10.2789 14.904 9.30906C15.0968 8.33918 14.9978 7.33389 14.6193 6.42031C14.2409 5.50673 13.6 4.72589 12.7778 4.17652C11.9555 3.62715 10.9889 3.33392 10 3.33392C9.01113 3.33392 8.04446 3.62715 7.22223 4.17652C6.40001 4.72589 5.75914 5.50673 5.38068 6.42031C5.00222 7.33389 4.90315 8.33918 5.09601 9.30906C5.28887 10.2789 5.76499 11.1699 6.46416 11.8692L10 15.4042ZM14.7142 13.0475L10 17.7617L5.28583 13.0475C4.35352 12.1151 3.71861 10.9272 3.4614 9.63404C3.2042 8.34085 3.33624 7.00042 3.84083 5.78227C4.34543 4.56411 5.19991 3.52294 6.29623 2.79041C7.39255 2.05789 8.68147 1.6669 10 1.6669C11.3185 1.6669 12.6074 2.05789 13.7038 2.79041C14.8001 3.52294 15.6546 4.56411 16.1592 5.78227C16.6638 7.00042 16.7958 8.34085 16.5386 9.63404C16.2814 10.9272 15.6465 12.1151 14.7142 13.0475ZM4.16666 18.3333H15.8333V20H4.16666V18.3333Z" fill="#545454"/>
</svg>
