<svg width="24" height="23" viewBox="0 0 24 23" fill="none" xmlns="http://www.w3.org/2000/svg">
<path d="M12 22.7393L5.636 16.6405C4.37734 15.4343 3.52019 13.8974 3.17293 12.2244C2.82567 10.5513 3.00391 8.81708 3.6851 7.24107C4.36629 5.66506 5.51984 4.31803 6.99988 3.37031C8.47992 2.42259 10.22 1.91674 12 1.91674C13.78 1.91674 15.5201 2.42259 17.0001 3.37031C18.4802 4.31803 19.6337 5.66506 20.3149 7.24107C20.9961 8.81708 21.1743 10.5513 20.8271 12.2244C20.4798 13.8974 19.6227 15.4343 18.364 16.6405L12 22.7393ZM16.95 15.2854C17.9289 14.3472 18.5955 13.1519 18.8656 11.8506C19.1356 10.5494 18.9969 9.20057 18.4671 7.97482C17.9373 6.74908 17.04 5.70142 15.8889 4.96433C14.7378 4.22724 13.3844 3.83382 12 3.83382C10.6156 3.83382 9.26222 4.22724 8.11109 4.96433C6.95996 5.70142 6.06275 6.74908 5.53292 7.97482C5.00308 9.20057 4.86442 10.5494 5.13445 11.8506C5.40449 13.1519 6.07111 14.3472 7.05 15.2854L12 20.0292L16.95 15.2854ZM12 12.4583C11.4696 12.4583 10.9609 12.2564 10.5858 11.897C10.2107 11.5375 10 11.05 10 10.5417C10 10.0333 10.2107 9.54582 10.5858 9.18638C10.9609 8.82693 11.4696 8.625 12 8.625C12.5304 8.625 13.0391 8.82693 13.4142 9.18638C13.7893 9.54582 14 10.0333 14 10.5417C14 11.05 13.7893 11.5375 13.4142 11.897C13.0391 12.2564 12.5304 12.4583 12 12.4583Z" fill="white"/>
</svg>
