<svg width="20" height="20" viewBox="0 0 20 20" fill="none" xmlns="http://www.w3.org/2000/svg">
<path d="M2.78334 14.1667C2.43106 13.5575 2.15723 12.9062 1.96834 12.2283C2.37943 12.0193 2.72467 11.7005 2.96586 11.3074C3.20706 10.9143 3.33481 10.4621 3.33498 10.0009C3.33515 9.53973 3.20774 9.08746 2.96684 8.69417C2.72594 8.30088 2.38094 7.9819 1.97 7.7725C2.3467 6.41041 3.06395 5.16663 4.05417 4.15834C4.44092 4.40978 4.88969 4.54931 5.35082 4.56149C5.81195 4.57367 6.26747 4.45803 6.66695 4.22737C7.06643 3.9967 7.3943 3.66 7.61428 3.25454C7.83425 2.84907 7.93776 2.39065 7.91334 1.93C9.28176 1.57636 10.7177 1.57693 12.0858 1.93167C12.0616 2.39231 12.1653 2.85066 12.3855 3.25601C12.6056 3.66136 12.9336 3.9979 13.3332 4.22839C13.7328 4.45888 14.1883 4.57433 14.6494 4.56196C15.1105 4.5496 15.5592 4.40991 15.9458 4.15834C16.4283 4.65 16.8567 5.20917 17.2167 5.83334C17.5775 6.45751 17.8475 7.10834 18.0317 7.77167C17.6206 7.98076 17.2753 8.29948 17.0341 8.69259C16.793 9.0857 16.6652 9.53787 16.665 9.99908C16.6649 10.4603 16.7923 10.9125 17.0332 11.3058C17.2741 11.6991 17.6191 12.0181 18.03 12.2275C17.6533 13.5896 16.9361 14.8334 15.9458 15.8417C15.5591 15.5902 15.1103 15.4507 14.6492 15.4385C14.1881 15.4263 13.7325 15.542 13.3331 15.7726C12.9336 16.0033 12.6057 16.34 12.3857 16.7455C12.1658 17.1509 12.0622 17.6094 12.0867 18.07C10.7182 18.4237 9.28231 18.4231 7.91417 18.0683C7.93838 17.6077 7.83467 17.1493 7.61452 16.744C7.39437 16.3386 7.06637 16.0021 6.66681 15.7716C6.26725 15.5411 5.81172 15.4257 5.35061 15.438C4.8895 15.4504 4.44081 15.5901 4.05417 15.8417C3.56166 15.3391 3.13467 14.7763 2.78334 14.1667ZM7.5 14.33C8.38803 14.8422 9.05571 15.6642 9.375 16.6383C9.79084 16.6775 10.2083 16.6783 10.6242 16.6392C10.9437 15.6649 11.6117 14.8429 12.5 14.3308C13.3877 13.8172 14.4338 13.6496 15.4375 13.86C15.6792 13.52 15.8875 13.1575 16.0608 12.7783C15.377 12.0145 14.9993 11.0252 15 10C15 8.95 15.3917 7.96917 16.0608 7.22167C15.8863 6.84263 15.6771 6.48053 15.4358 6.14001C14.4327 6.35026 13.3873 6.1829 12.5 5.67C11.612 5.15781 10.9443 4.33582 10.625 3.36167C10.2092 3.3225 9.79167 3.32167 9.37584 3.36084C9.05634 4.33513 8.38834 5.15714 7.5 5.66917C6.61232 6.18277 5.56624 6.35044 4.5625 6.14001C4.32131 6.48024 4.11261 6.84239 3.93917 7.22167C4.62298 7.98547 5.00074 8.97483 5 10C5 11.05 4.60834 12.0308 3.93917 12.7783C4.11373 13.1574 4.32295 13.5195 4.56417 13.86C5.56727 13.6497 6.61268 13.8171 7.5 14.33ZM10 12.5C9.33696 12.5 8.70108 12.2366 8.23224 11.7678C7.7634 11.2989 7.5 10.663 7.5 10C7.5 9.33696 7.7634 8.70108 8.23224 8.23224C8.70108 7.7634 9.33696 7.50001 10 7.50001C10.663 7.50001 11.2989 7.7634 11.7678 8.23224C12.2366 8.70108 12.5 9.33696 12.5 10C12.5 10.663 12.2366 11.2989 11.7678 11.7678C11.2989 12.2366 10.663 12.5 10 12.5ZM10 10.8333C10.221 10.8333 10.433 10.7455 10.5893 10.5893C10.7455 10.433 10.8333 10.221 10.8333 10C10.8333 9.77899 10.7455 9.56703 10.5893 9.41075C10.433 9.25447 10.221 9.16667 10 9.16667C9.77899 9.16667 9.56703 9.25447 9.41075 9.41075C9.25447 9.56703 9.16667 9.77899 9.16667 10C9.16667 10.221 9.25447 10.433 9.41075 10.5893C9.56703 10.7455 9.77899 10.8333 10 10.8333Z" fill="#545454"/>
</svg>
