<svg width="20" height="21" viewBox="0 0 20 21" fill="none" xmlns="http://www.w3.org/2000/svg">
<path d="M10.0001 11.375C10.4603 11.375 10.8334 10.9832 10.8334 10.5C10.8334 10.0168 10.4603 9.625 10.0001 9.625C9.53984 9.625 9.16675 10.0168 9.16675 10.5C9.16675 10.9832 9.53984 11.375 10.0001 11.375Z" stroke="#384849" stroke-width="1.2" stroke-linecap="round" stroke-linejoin="round"/>
<path d="M10.0001 5.25C10.4603 5.25 10.8334 4.85825 10.8334 4.375C10.8334 3.89175 10.4603 3.5 10.0001 3.5C9.53984 3.5 9.16675 3.89175 9.16675 4.375C9.16675 4.85825 9.53984 5.25 10.0001 5.25Z" stroke="#384849" stroke-width="1.2" stroke-linecap="round" stroke-linejoin="round"/>
<path d="M10.0001 17.5C10.4603 17.5 10.8334 17.1082 10.8334 16.625C10.8334 16.1418 10.4603 15.75 10.0001 15.75C9.53984 15.75 9.16675 16.1418 9.16675 16.625C9.16675 17.1082 9.53984 17.5 10.0001 17.5Z" stroke="#384849" stroke-width="1.2" stroke-linecap="round" stroke-linejoin="round"/>
</svg>
