<svg width="16" height="15" viewBox="0 0 16 15" fill="none" xmlns="http://www.w3.org/2000/svg">
<path d="M11.125 3.75H14.25V5H13V13.125C13 13.2908 12.9342 13.4497 12.8169 13.5669C12.6997 13.6842 12.5408 13.75 12.375 13.75H3.625C3.45924 13.75 3.30027 13.6842 3.18306 13.5669C3.06585 13.4497 3 13.2908 3 13.125V5H1.75V3.75H4.875V1.875C4.875 1.70924 4.94085 1.55027 5.05806 1.43306C5.17527 1.31585 5.33424 1.25 5.5 1.25H10.5C10.6658 1.25 10.8247 1.31585 10.9419 1.43306C11.0592 1.55027 11.125 1.70924 11.125 1.875V3.75ZM11.75 5H4.25V12.5H11.75V5ZM6.125 6.875H7.375V10.625H6.125V6.875ZM8.625 6.875H9.875V10.625H8.625V6.875ZM6.125 2.5V3.75H9.875V2.5H6.125Z" fill="#464646"/>
</svg>
