<svg width="22" height="22" viewBox="0 0 22 22" fill="none" xmlns="http://www.w3.org/2000/svg">
<path d="M16.2771 15.0399L20.0247 18.7866L18.7866 20.0247L15.0399 16.2771C13.6458 17.3947 11.9118 18.0025 10.125 18C5.778 18 2.25 14.472 2.25 10.125C2.25 5.778 5.778 2.25 10.125 2.25C14.472 2.25 18 5.778 18 10.125C18.0025 11.9118 17.3947 13.6458 16.2771 15.0399ZM14.5219 14.3906C15.6323 13.2486 16.2525 11.7179 16.25 10.125C16.25 6.7405 13.5086 4 10.125 4C6.7405 4 4 6.7405 4 10.125C4 13.5086 6.7405 16.25 10.125 16.25C11.7179 16.2525 13.2486 15.6323 14.3906 14.5219L14.5219 14.3906Z" fill="#464646"/>
</svg>
