<svg width="21" height="20" viewBox="0 0 21 20" fill="none" xmlns="http://www.w3.org/2000/svg">
<path d="M17.1666 18.3333H15.4999V16.6666C15.4999 16.0036 15.2365 15.3677 14.7677 14.8989C14.2988 14.43 13.663 14.1666 12.9999 14.1666H7.99992C7.33688 14.1666 6.70099 14.43 6.23215 14.8989C5.76331 15.3677 5.49992 16.0036 5.49992 16.6666V18.3333H3.83325V16.6666C3.83325 15.5616 4.27224 14.5018 5.05364 13.7204C5.83504 12.939 6.89485 12.5 7.99992 12.5H12.9999C14.105 12.5 15.1648 12.939 15.9462 13.7204C16.7276 14.5018 17.1666 15.5616 17.1666 16.6666V18.3333ZM10.4999 10.8333C9.84331 10.8333 9.19313 10.704 8.5865 10.4527C7.97987 10.2014 7.42868 9.83314 6.96438 9.36885C6.50009 8.90455 6.13179 8.35336 5.88052 7.74673C5.62925 7.1401 5.49992 6.48992 5.49992 5.83331C5.49992 5.1767 5.62925 4.52652 5.88052 3.9199C6.13179 3.31327 6.50009 2.76207 6.96438 2.29778C7.42868 1.83349 7.97987 1.46519 8.5865 1.21392C9.19313 0.962642 9.84331 0.833313 10.4999 0.833313C11.826 0.833313 13.0978 1.3601 14.0355 2.29778C14.9731 3.23546 15.4999 4.50723 15.4999 5.83331C15.4999 7.1594 14.9731 8.43116 14.0355 9.36885C13.0978 10.3065 11.826 10.8333 10.4999 10.8333ZM10.4999 9.16665C11.384 9.16665 12.2318 8.81546 12.8569 8.19034C13.4821 7.56521 13.8333 6.71737 13.8333 5.83331C13.8333 4.94926 13.4821 4.10141 12.8569 3.47629C12.2318 2.85117 11.384 2.49998 10.4999 2.49998C9.61586 2.49998 8.76802 2.85117 8.1429 3.47629C7.51777 4.10141 7.16659 4.94926 7.16659 5.83331C7.16659 6.71737 7.51777 7.56521 8.1429 8.19034C8.76802 8.81546 9.61586 9.16665 10.4999 9.16665Z" fill="#464646"/>
</svg>
