<svg width="24" height="24" viewBox="0 0 24 24" fill="none" xmlns="http://www.w3.org/2000/svg">
<path d="M13.1202 17.023L8.92121 14.733C8.373 15.3191 7.66119 15.7267 6.87828 15.9029C6.09537 16.0791 5.27756 16.0157 4.53113 15.721C3.7847 15.4263 3.14417 14.914 2.69277 14.2504C2.24138 13.5869 2 12.803 2 12.0005C2 11.198 2.24138 10.4141 2.69277 9.75055C3.14417 9.08704 3.7847 8.57465 4.53113 8.27996C5.27756 7.98527 6.09537 7.92191 6.87828 8.09811C7.66119 8.27431 8.373 8.68193 8.92121 9.268L13.1212 6.978C12.8828 6.03407 12.9968 5.03559 13.4418 4.1697C13.8869 3.30381 14.6325 2.62998 15.5389 2.2745C16.4452 1.91902 17.4501 1.9063 18.3652 2.23873C19.2803 2.57116 20.0427 3.22591 20.5095 4.08026C20.9764 4.9346 21.1156 5.92989 20.9011 6.87954C20.6866 7.8292 20.1332 8.66803 19.3444 9.23881C18.5557 9.80958 17.5859 10.0731 16.6168 9.97999C15.6477 9.88687 14.7458 9.44351 14.0802 8.733L9.88021 11.023C10.0414 11.6644 10.0414 12.3356 9.88021 12.977L14.0792 15.267C14.7448 14.5565 15.6467 14.1131 16.6158 14.02C17.5849 13.9269 18.5547 14.1904 19.3434 14.7612C20.1322 15.332 20.6856 16.1708 20.9001 17.1205C21.1146 18.0701 20.9754 19.0654 20.5085 19.9197C20.0417 20.7741 19.2793 21.4288 18.3642 21.7613C17.4491 22.0937 16.4442 22.081 15.5379 21.7255C14.6315 21.37 13.8859 20.6962 13.4408 19.8303C12.9958 18.9644 12.8818 17.9659 13.1202 17.022V17.023ZM6.00021 14C6.53064 14 7.03935 13.7893 7.41442 13.4142C7.78949 13.0391 8.00021 12.5304 8.00021 12C8.00021 11.4696 7.78949 10.9609 7.41442 10.5858C7.03935 10.2107 6.53064 10 6.00021 10C5.46977 10 4.96107 10.2107 4.58599 10.5858C4.21092 10.9609 4.00021 11.4696 4.00021 12C4.00021 12.5304 4.21092 13.0391 4.58599 13.4142C4.96107 13.7893 5.46977 14 6.00021 14ZM17.0002 8C17.5306 8 18.0393 7.78928 18.4144 7.41421C18.7895 7.03914 19.0002 6.53043 19.0002 6C19.0002 5.46956 18.7895 4.96086 18.4144 4.58578C18.0393 4.21071 17.5306 4 17.0002 4C16.4698 4 15.9611 4.21071 15.586 4.58578C15.2109 4.96086 15.0002 5.46956 15.0002 6C15.0002 6.53043 15.2109 7.03914 15.586 7.41421C15.9611 7.78928 16.4698 8 17.0002 8ZM17.0002 20C17.5306 20 18.0393 19.7893 18.4144 19.4142C18.7895 19.0391 19.0002 18.5304 19.0002 18C19.0002 17.4696 18.7895 16.9609 18.4144 16.5858C18.0393 16.2107 17.5306 16 17.0002 16C16.4698 16 15.9611 16.2107 15.586 16.5858C15.2109 16.9609 15.0002 17.4696 15.0002 18C15.0002 18.5304 15.2109 19.0391 15.586 19.4142C15.9611 19.7893 16.4698 20 17.0002 20Z" fill="#222222"/>
</svg>
