<svg width="22" height="24" viewBox="0 0 22 24" fill="none" xmlns="http://www.w3.org/2000/svg">
<path d="M12.3526 12.6699C12.3261 12.3524 12.2961 12.0354 12.2604 11.7189C12.2435 11.5707 12.2262 11.4232 12.2072 11.2752C12.1989 11.2178 12.1908 11.1605 12.1823 11.1031C12.1019 10.5652 12.0078 10.0288 11.8834 9.4994C11.8477 9.347 11.8088 9.19494 11.7681 9.04321C11.7629 9.05987 11.7566 9.07598 11.7514 9.09297C11.5093 9.84751 11.3189 10.6187 11.1534 11.3941C10.7765 13.1572 10.5508 14.9468 10.1968 16.7142C10.0178 17.6097 9.83393 18.5288 9.49504 19.3804C9.18947 20.149 8.80948 20.9018 7.96164 21.1751C6.34339 21.6965 5.58219 19.7444 5.21464 18.581C4.78333 17.2166 4.48932 15.81 4.1482 14.421C4.08334 14.1565 4.01702 13.8921 3.94893 13.628C3.5685 15.4634 3.3719 17.3564 2.66035 19.092C2.65502 19.1051 2.64913 19.1189 2.6438 19.1319L8.88668 22.7491C9.53502 23.1248 10.4179 23.2857 11.2686 23.2338C11.2948 23.1822 11.3211 23.1311 11.3456 23.0788C11.3672 23.0328 11.3882 22.9871 11.4089 22.9408C11.5003 22.7109 11.585 22.4779 11.659 22.2414C11.8355 21.6775 11.9751 21.1019 12.0839 20.521C12.1426 20.2084 12.1952 19.8943 12.2395 19.5793C12.2397 19.5778 12.2397 19.5769 12.2403 19.5757C12.2488 19.5071 12.2576 19.4389 12.2656 19.3702C12.285 19.2048 12.3036 19.0393 12.3198 18.8734C12.3867 18.1942 12.4313 17.5123 12.4533 16.8298C12.4978 15.4435 12.4675 14.0527 12.3526 12.6699Z" fill="#0145A5"/>
<path d="M15.1551 16.9164C15.0955 18.5208 14.9723 20.2241 14.593 21.843L19.5026 18.9857C20.6417 18.3255 21.5522 16.7086 21.5522 15.3922V15.0019L13.5024 6.29614C14.0287 6.9877 14.2883 7.94517 14.4807 8.78034C15.09 11.4215 15.2557 14.2139 15.1551 16.9164Z" fill="#0145A5"/>
<path d="M19.5027 4.2586L13.0177 0.494924C11.8785 -0.164975 10.0202 -0.164975 8.88116 0.494924L2.45223 4.2586C1.31327 4.91872 0.447876 6.53587 0.447876 7.85189V15.3922C0.447876 15.8013 0.473979 16.2393 0.632261 16.6686C0.904396 15.5455 1.05846 14.4046 1.29072 13.2723C1.46644 12.4148 1.6295 11.5294 1.96905 10.7189C2.25896 10.0261 2.65894 9.16902 3.48901 9.00685C4.37939 8.83335 5.09616 9.26899 5.54301 10.0239L8.14728 12.7925C8.37654 11.4345 8.63146 10.0799 9.02511 8.76015C9.31002 7.80435 9.66946 6.49455 10.493 5.83809C11.5635 4.98448 12.7023 5.24384 13.5027 6.29617L21.5522 15.0019V7.85189C21.5522 6.53587 20.6417 4.91872 19.5027 4.2586Z" fill="url(#paint0_linear_1742_2194)"/>
<path d="M6.75656 13.7021C6.99359 14.6697 7.20819 15.6465 7.46289 16.6115C7.62961 15.8559 7.76413 15.0921 7.89053 14.3304C7.9755 13.8185 8.0587 13.3053 8.14534 12.7923L5.53906 10.0237C6.18697 11.1187 6.45721 12.4803 6.75656 13.7021Z" fill="#0145A5"/>
<defs>
<linearGradient id="paint0_linear_1742_2194" x1="11" y1="0" x2="11" y2="16.6686" gradientUnits="userSpaceOnUse">
<stop stop-color="#0363DA"/>
<stop offset="1" stop-color="#5546CB"/>
</linearGradient>
</defs>
</svg>
