<svg width="24" height="24" viewBox="0 0 24 24" fill="none" xmlns="http://www.w3.org/2000/svg">
<path d="M16 9C16 7.93913 15.5786 6.92172 14.8284 6.17157C14.0783 5.42143 13.0609 5 12 5C10.9391 5 9.92172 5.42143 9.17157 6.17157C8.42143 6.92172 8 7.93913 8 9C8 13.6667 6 15 6 15H18C18 15 16 13.6667 16 9Z" stroke="#164150" stroke-linecap="round" stroke-linejoin="round"/>
<path d="M13 18C12.8984 18.3042 12.7525 18.5566 12.577 18.7321C12.4015 18.9076 12.2025 19 12 19C11.7975 19 11.5985 18.9076 11.423 18.7321C11.2475 18.5566 11.1016 18.3042 11 18" stroke="#164150" stroke-linecap="round" stroke-linejoin="round"/>
</svg>
