<svg width="17" height="17" viewBox="0 0 17 17" fill="none" xmlns="http://www.w3.org/2000/svg">
<path d="M13.4583 1.41669H3.54163C3.35376 1.41669 3.1736 1.49131 3.04076 1.62415C2.90792 1.75699 2.83329 1.93716 2.83329 2.12502V15.6846C2.83321 15.748 2.85012 15.8102 2.88224 15.8647C2.91436 15.9193 2.96053 15.9643 3.01594 15.995C3.07135 16.0256 3.13397 16.0409 3.19727 16.0391C3.26058 16.0374 3.32225 16.0187 3.37588 15.985L8.49996 12.7713L13.624 15.9843C13.6776 16.0179 13.7392 16.0366 13.8025 16.0384C13.8657 16.0402 13.9283 16.025 13.9837 15.9944C14.0391 15.9638 14.0852 15.919 14.1174 15.8645C14.1496 15.81 14.1666 15.7479 14.1666 15.6846V2.12502C14.1666 1.93716 14.092 1.75699 13.9592 1.62415C13.8263 1.49131 13.6462 1.41669 13.4583 1.41669ZM4.24996 2.83335H12.75V13.7644L8.49996 11.1003L4.24996 13.7644V2.83335Z" fill="#222222"/>
</svg>
