<svg width="19" height="19" viewBox="0 0 19 19" fill="none" xmlns="http://www.w3.org/2000/svg">
<path fill-rule="evenodd" clip-rule="evenodd" d="M8.55383 11.7308L11.449 16.4277C11.5756 16.6335 11.7735 16.6312 11.8535 16.6201C11.9335 16.609 12.1258 16.5599 12.1955 16.3264L15.8158 4.09909C15.8791 3.88296 15.7627 3.73571 15.7105 3.68346C15.6598 3.63121 15.515 3.51959 15.3052 3.57896L3.06917 7.16205C2.83721 7.23013 2.78654 7.42488 2.77546 7.50484C2.76437 7.58638 2.76121 7.78826 2.96625 7.9173L7.71704 10.8884L11.9145 6.64667C12.1448 6.41392 12.5209 6.41155 12.7544 6.64192C12.988 6.8723 12.9895 7.24913 12.7592 7.48188L8.55383 11.7308ZM11.7917 17.8123C11.2407 17.8123 10.7357 17.5321 10.438 17.0508L7.36871 12.0704L2.33688 8.92351C1.79458 8.58388 1.51117 7.97905 1.59904 7.34334C1.68613 6.70763 2.12233 6.20255 2.73508 6.02284L14.9711 2.43976C15.534 2.27509 16.1372 2.43105 16.552 2.8443C16.9669 3.26151 17.1213 3.87109 16.9534 4.43634L13.3331 16.6628C13.1518 17.278 12.6452 17.7126 12.011 17.7973C11.9366 17.8068 11.8646 17.8123 11.7917 17.8123Z" fill="#858585"/>
</svg>
